<?xml version="1.0" encoding="utf-8"?>
<!-- Generator: Adobe Illustrator 26.0.1, SVG Export Plug-In . SVG Version: 6.00 Build 0)  -->
<svg version="1.1" id="レイヤー_1" xmlns="http://www.w3.org/2000/svg" xmlns:xlink="http://www.w3.org/1999/xlink" x="0px"
	 y="0px" viewBox="0 0 500 500" style="enable-background:new 0 0 500 500;" xml:space="preserve">
<style type="text/css">
	.st0{fill:#FFFFFF;}
</style>
<g>
	<g>
		<g>
			<path class="st0" d="M236.42,463.95c0.93,1.02,1.27,1.39,1.69,3.5c3.48,13.42,4.8,39.45-31.7,30.84
				c-0.68-0.16-3.52-1.24-4.61-2.12C200.2,492.61,98.63,392.61,36.95,261.5C5.98,198.2-8.49,114.59,23.91,59.04
				C36.56,33.84,55.92,11.69,78.58,3.8c22.67-7.3,35.75-1.69,35.49-2.47c0.34-0.95,32.13,9.25,53.79,34.07
				c23.22,23.66,43.99,56.24,60.52,82.74c27.23,46.21,40.75,50.39,35.62,53.75c-10.16,4.45-35.71-14.84-57.35-39.09
				c1.47,3.38-23.98-27.76-51.36-54.16c-28.76-29.97-56.41-33.87-53.99-31.52c0.96,0.23-16.34-5.59-38.26,38.86
				c-19.59,36.54-10.13,101.12,18.35,159.31C137.64,363.49,235.3,461.49,236.42,463.95z"/>
		</g>
	</g>
	<g>
		<g>
			<path class="st0" d="M349.54,440.97c-0.7,1-0.95,1.36-2.79,2.02c-11.94,5.46-34.58,7.71-36.75-24.62
				c-0.04-0.59,0.1-3.16,0.56-4.18c0.99-2.33,69.06-96.42,112.56-198.85c21.71-48.97,33.1-109.57,15.02-125.76
				c-14.56-16.16-53.77-14.17-50.76-15.93c0.36,0.49-70.31-15.49-117.78-2.66c-39.63,11.27-46.98,25.51-49.36,18.39
				c-1.81-7.34,13.39-30.36,41.4-43.33c-3.44,0.32,30.35-15.1,66.36-17.75c35.76-3.75,71.87-0.59,71.75-0.4c0,0,7.28,1.1,20.03,3.07
				c12.9,2.63,39.59,7.6,58.7,33.58c33.43,56.57,6.94,118.72-13.06,171.85C418.99,344.38,350.93,437.85,349.54,440.97z"/>
		</g>
	</g>
</g>
</svg>
