<svg xmlns="http://www.w3.org/2000/svg" width="20" height="20" viewBox="0 0 20 20">
  <path id="Icon_material-language" data-name="Icon material-language" d="M12.99,3A10,10,0,1,0,23,13,10,10,0,0,0,12.99,3Zm6.93,6H16.97a15.649,15.649,0,0,0-1.38-3.56A8.03,8.03,0,0,1,19.92,9ZM13,5.04A14.087,14.087,0,0,1,14.91,9H11.09A14.087,14.087,0,0,1,13,5.04ZM5.26,15a7.822,7.822,0,0,1,0-4H8.64a16.515,16.515,0,0,0-.14,2,16.515,16.515,0,0,0,.14,2Zm.82,2H9.03a15.649,15.649,0,0,0,1.38,3.56A7.987,7.987,0,0,1,6.08,17ZM9.03,9H6.08a7.987,7.987,0,0,1,4.33-3.56A15.649,15.649,0,0,0,9.03,9ZM13,20.96A14.087,14.087,0,0,1,11.09,17h3.82A14.087,14.087,0,0,1,13,20.96ZM15.34,15H10.66a14.713,14.713,0,0,1-.16-2,14.585,14.585,0,0,1,.16-2h4.68a14.585,14.585,0,0,1,.16,2A14.713,14.713,0,0,1,15.34,15Zm.25,5.56A15.649,15.649,0,0,0,16.97,17h2.95a8.03,8.03,0,0,1-4.33,3.56ZM17.36,15a16.515,16.515,0,0,0,.14-2,16.515,16.515,0,0,0-.14-2h3.38a7.822,7.822,0,0,1,0,4Z" transform="translate(-3 -3)" fill="#fff"/>
</svg>
