<svg xmlns="http://www.w3.org/2000/svg" width="20" height="20.002" viewBox="0 0 20 20.002">
  <path id="Icon_awesome-blog" data-name="Icon awesome-blog" d="M6.728,8.86a.939.939,0,0,0-1.1.93v1.969a.939.939,0,0,0,.652.86,1.875,1.875,0,1,1-2.528,1.758V4.687a.935.935,0,0,0-.938-.938H.938A.935.935,0,0,0,0,4.687v9.689A5.627,5.627,0,1,0,6.728,8.86ZM8.165,0A.629.629,0,0,0,7.5.624V1.859a.619.619,0,0,0,.586.621A10.034,10.034,0,0,1,17.5,11.915a.624.624,0,0,0,.621.586h1.254A.629.629,0,0,0,20,11.837,12.532,12.532,0,0,0,8.165,0ZM8.177,3.75a.63.63,0,0,0-.676.629V5.633a.623.623,0,0,0,.578.621,6.24,6.24,0,0,1,5.661,5.673.628.628,0,0,0,.621.574h1.258a.633.633,0,0,0,.629-.676A8.79,8.79,0,0,0,8.177,3.75Z" transform="translate(0 0.002)" fill="#fff"/>
</svg>
